<mxfile host="app.diagrams.net" modified="2022-03-19T09:02:53.149Z" agent="5.0 (Windows NT 6.3; Win64; x64) AppleWebKit/537.36 (KHTML, like Gecko) Chrome/99.0.4844.74 Safari/537.36" etag="TKC2p4hMsyD2ElGwmbfO" version="17.1.2" type="github">
  <diagram name="Page-1" id="ad52d381-51e7-2e0d-a935-2d0ddd2fd229">
    <mxGraphModel dx="1221" dy="682" grid="0" gridSize="10" guides="1" tooltips="1" connect="1" arrows="1" fold="1" page="1" pageScale="1" pageWidth="1100" pageHeight="850" background="#FFFFFF" math="0" shadow="0">
      <root>
        <mxCell id="0" />
        <mxCell id="1" parent="0" />
        <mxCell id="XwkSETzzSRvDaptBHPgJ-48" value="" style="group" vertex="1" connectable="0" parent="1">
          <mxGeometry x="200" y="296" width="760" height="204" as="geometry" />
        </mxCell>
        <mxCell id="XwkSETzzSRvDaptBHPgJ-41" value="" style="rounded=0;whiteSpace=wrap;html=1;fillColor=#fff2cc;strokeColor=#d6b656;gradientColor=#ffd966;" vertex="1" parent="XwkSETzzSRvDaptBHPgJ-48">
          <mxGeometry width="759" height="80" as="geometry" />
        </mxCell>
        <mxCell id="XwkSETzzSRvDaptBHPgJ-39" value="" style="rounded=0;whiteSpace=wrap;html=1;fillColor=#d5e8d4;strokeColor=#82b366;gradientColor=#97d077;" vertex="1" parent="XwkSETzzSRvDaptBHPgJ-48">
          <mxGeometry y="124" width="760" height="80" as="geometry" />
        </mxCell>
        <mxCell id="XwkSETzzSRvDaptBHPgJ-1" value="人脸算子" style="whiteSpace=wrap;html=1;rounded=1;shadow=1;comic=0;labelBackgroundColor=none;strokeWidth=2;fontFamily=Verdana;fontSize=12;align=center;arcSize=50;fillColor=#f8cecc;gradientColor=#ea6b66;strokeColor=#b85450;" vertex="1" parent="XwkSETzzSRvDaptBHPgJ-48">
          <mxGeometry x="41" y="24" width="80" height="20" as="geometry" />
        </mxCell>
        <mxCell id="XwkSETzzSRvDaptBHPgJ-3" value="结构化算子" style="whiteSpace=wrap;html=1;rounded=1;shadow=1;comic=0;labelBackgroundColor=none;strokeWidth=2;fontFamily=Verdana;fontSize=12;align=center;arcSize=50;fillColor=#f8cecc;gradientColor=#ea6b66;strokeColor=#b85450;" vertex="1" parent="XwkSETzzSRvDaptBHPgJ-48">
          <mxGeometry x="210" y="24" width="80" height="20" as="geometry" />
        </mxCell>
        <mxCell id="XwkSETzzSRvDaptBHPgJ-4" value="车辆算子" style="whiteSpace=wrap;html=1;rounded=1;shadow=1;comic=0;labelBackgroundColor=none;strokeWidth=2;fontFamily=Verdana;fontSize=12;align=center;arcSize=50;fillColor=#f8cecc;gradientColor=#ea6b66;strokeColor=#b85450;" vertex="1" parent="XwkSETzzSRvDaptBHPgJ-48">
          <mxGeometry x="380" y="24" width="80" height="20" as="geometry" />
        </mxCell>
        <mxCell id="XwkSETzzSRvDaptBHPgJ-5" value="行为算子" style="whiteSpace=wrap;html=1;rounded=1;shadow=1;comic=0;labelBackgroundColor=none;strokeWidth=2;fontFamily=Verdana;fontSize=12;align=center;arcSize=50;fillColor=#f8cecc;gradientColor=#ea6b66;strokeColor=#b85450;" vertex="1" parent="XwkSETzzSRvDaptBHPgJ-48">
          <mxGeometry x="520" y="24" width="80" height="20" as="geometry" />
        </mxCell>
        <mxCell id="XwkSETzzSRvDaptBHPgJ-7" value="..." style="whiteSpace=wrap;html=1;rounded=1;shadow=1;comic=0;labelBackgroundColor=none;strokeWidth=2;fontFamily=Verdana;fontSize=12;align=center;arcSize=50;fillColor=#f8cecc;gradientColor=#ea6b66;strokeColor=#b85450;" vertex="1" parent="XwkSETzzSRvDaptBHPgJ-48">
          <mxGeometry x="660" y="24" width="80" height="20" as="geometry" />
        </mxCell>
        <mxCell id="XwkSETzzSRvDaptBHPgJ-8" value="P4&amp;amp;Cuda8.1" style="whiteSpace=wrap;html=1;rounded=1;shadow=1;comic=0;labelBackgroundColor=none;strokeWidth=2;fontFamily=Verdana;fontSize=12;align=center;arcSize=50;fillColor=#dae8fc;gradientColor=#7ea6e0;strokeColor=#6c8ebf;" vertex="1" parent="XwkSETzzSRvDaptBHPgJ-48">
          <mxGeometry x="40" y="164" width="100" height="20" as="geometry" />
        </mxCell>
        <mxCell id="XwkSETzzSRvDaptBHPgJ-9" value="..." style="whiteSpace=wrap;html=1;rounded=1;shadow=1;comic=0;labelBackgroundColor=none;strokeWidth=2;fontFamily=Verdana;fontSize=12;align=center;arcSize=50;fillColor=#dae8fc;gradientColor=#7ea6e0;strokeColor=#6c8ebf;" vertex="1" parent="XwkSETzzSRvDaptBHPgJ-48">
          <mxGeometry x="170" y="164" width="100" height="20" as="geometry" />
        </mxCell>
        <mxCell id="XwkSETzzSRvDaptBHPgJ-10" value="T4&amp;amp;Cuda11.1" style="whiteSpace=wrap;html=1;rounded=1;shadow=1;comic=0;labelBackgroundColor=none;strokeWidth=2;fontFamily=Verdana;fontSize=12;align=center;arcSize=50;fillColor=#dae8fc;gradientColor=#7ea6e0;strokeColor=#6c8ebf;" vertex="1" parent="XwkSETzzSRvDaptBHPgJ-48">
          <mxGeometry x="300" y="164" width="100" height="20" as="geometry" />
        </mxCell>
        <mxCell id="XwkSETzzSRvDaptBHPgJ-11" value="Atlas310&amp;amp;SDK20.2" style="whiteSpace=wrap;html=1;rounded=1;shadow=1;comic=0;labelBackgroundColor=none;strokeWidth=2;fontFamily=Verdana;fontSize=12;align=center;arcSize=50;fillColor=#dae8fc;gradientColor=#7ea6e0;strokeColor=#6c8ebf;" vertex="1" parent="XwkSETzzSRvDaptBHPgJ-48">
          <mxGeometry x="430" y="164" width="140" height="20" as="geometry" />
        </mxCell>
        <mxCell id="XwkSETzzSRvDaptBHPgJ-12" value="Atlas310&amp;amp;SDK21.2" style="whiteSpace=wrap;html=1;rounded=1;shadow=1;comic=0;labelBackgroundColor=none;strokeWidth=2;fontFamily=Verdana;fontSize=12;align=center;arcSize=50;fillColor=#dae8fc;gradientColor=#7ea6e0;strokeColor=#6c8ebf;" vertex="1" parent="XwkSETzzSRvDaptBHPgJ-48">
          <mxGeometry x="600" y="164" width="140" height="20" as="geometry" />
        </mxCell>
        <mxCell id="XwkSETzzSRvDaptBHPgJ-21" value="" style="endArrow=classic;html=1;rounded=0;entryX=0.5;entryY=0;entryDx=0;entryDy=0;exitX=0.5;exitY=1;exitDx=0;exitDy=0;" edge="1" parent="XwkSETzzSRvDaptBHPgJ-48" source="XwkSETzzSRvDaptBHPgJ-1" target="XwkSETzzSRvDaptBHPgJ-9">
          <mxGeometry width="50" height="50" relative="1" as="geometry">
            <mxPoint x="20" y="144" as="sourcePoint" />
            <mxPoint x="70" y="94" as="targetPoint" />
          </mxGeometry>
        </mxCell>
        <mxCell id="XwkSETzzSRvDaptBHPgJ-22" value="" style="endArrow=classic;html=1;rounded=0;exitX=0.5;exitY=1;exitDx=0;exitDy=0;entryX=0.5;entryY=0;entryDx=0;entryDy=0;" edge="1" parent="XwkSETzzSRvDaptBHPgJ-48" source="XwkSETzzSRvDaptBHPgJ-1" target="XwkSETzzSRvDaptBHPgJ-10">
          <mxGeometry width="50" height="50" relative="1" as="geometry">
            <mxPoint x="300" y="144" as="sourcePoint" />
            <mxPoint x="350" y="94" as="targetPoint" />
          </mxGeometry>
        </mxCell>
        <mxCell id="XwkSETzzSRvDaptBHPgJ-23" value="" style="endArrow=classic;html=1;rounded=0;entryX=0.5;entryY=0;entryDx=0;entryDy=0;" edge="1" parent="XwkSETzzSRvDaptBHPgJ-48" target="XwkSETzzSRvDaptBHPgJ-11">
          <mxGeometry width="50" height="50" relative="1" as="geometry">
            <mxPoint x="90" y="44" as="sourcePoint" />
            <mxPoint x="450" y="94" as="targetPoint" />
          </mxGeometry>
        </mxCell>
        <mxCell id="XwkSETzzSRvDaptBHPgJ-24" value="" style="endArrow=classic;html=1;rounded=0;entryX=0.5;entryY=0;entryDx=0;entryDy=0;" edge="1" parent="XwkSETzzSRvDaptBHPgJ-48" target="XwkSETzzSRvDaptBHPgJ-12">
          <mxGeometry width="50" height="50" relative="1" as="geometry">
            <mxPoint x="90" y="44" as="sourcePoint" />
            <mxPoint x="290" y="-46" as="targetPoint" />
          </mxGeometry>
        </mxCell>
        <mxCell id="XwkSETzzSRvDaptBHPgJ-25" value="" style="endArrow=classic;html=1;rounded=0;exitX=0.5;exitY=1;exitDx=0;exitDy=0;entryX=0.5;entryY=0;entryDx=0;entryDy=0;" edge="1" parent="XwkSETzzSRvDaptBHPgJ-48" source="XwkSETzzSRvDaptBHPgJ-1" target="XwkSETzzSRvDaptBHPgJ-8">
          <mxGeometry width="50" height="50" relative="1" as="geometry">
            <mxPoint x="-10" y="154" as="sourcePoint" />
            <mxPoint x="40" y="104" as="targetPoint" />
          </mxGeometry>
        </mxCell>
        <mxCell id="XwkSETzzSRvDaptBHPgJ-26" value="" style="endArrow=classic;html=1;rounded=0;exitX=0.5;exitY=1;exitDx=0;exitDy=0;entryX=0.5;entryY=0;entryDx=0;entryDy=0;" edge="1" parent="XwkSETzzSRvDaptBHPgJ-48" source="XwkSETzzSRvDaptBHPgJ-3" target="XwkSETzzSRvDaptBHPgJ-8">
          <mxGeometry width="50" height="50" relative="1" as="geometry">
            <mxPoint x="290" y="264" as="sourcePoint" />
            <mxPoint x="340" y="214" as="targetPoint" />
          </mxGeometry>
        </mxCell>
        <mxCell id="XwkSETzzSRvDaptBHPgJ-27" value="" style="endArrow=classic;html=1;rounded=0;exitX=0.5;exitY=1;exitDx=0;exitDy=0;" edge="1" parent="XwkSETzzSRvDaptBHPgJ-48" source="XwkSETzzSRvDaptBHPgJ-4">
          <mxGeometry width="50" height="50" relative="1" as="geometry">
            <mxPoint x="310" y="284" as="sourcePoint" />
            <mxPoint x="90" y="164" as="targetPoint" />
          </mxGeometry>
        </mxCell>
        <mxCell id="XwkSETzzSRvDaptBHPgJ-28" value="" style="endArrow=classic;html=1;rounded=0;exitX=0.5;exitY=1;exitDx=0;exitDy=0;entryX=0.5;entryY=0;entryDx=0;entryDy=0;" edge="1" parent="XwkSETzzSRvDaptBHPgJ-48" source="XwkSETzzSRvDaptBHPgJ-4" target="XwkSETzzSRvDaptBHPgJ-9">
          <mxGeometry width="50" height="50" relative="1" as="geometry">
            <mxPoint x="270" y="264" as="sourcePoint" />
            <mxPoint x="320" y="214" as="targetPoint" />
          </mxGeometry>
        </mxCell>
        <mxCell id="XwkSETzzSRvDaptBHPgJ-29" value="" style="endArrow=classic;html=1;rounded=0;exitX=0.5;exitY=1;exitDx=0;exitDy=0;entryX=0.5;entryY=0;entryDx=0;entryDy=0;" edge="1" parent="XwkSETzzSRvDaptBHPgJ-48" source="XwkSETzzSRvDaptBHPgJ-5" target="XwkSETzzSRvDaptBHPgJ-10">
          <mxGeometry width="50" height="50" relative="1" as="geometry">
            <mxPoint x="440" y="274" as="sourcePoint" />
            <mxPoint x="490" y="224" as="targetPoint" />
          </mxGeometry>
        </mxCell>
        <mxCell id="XwkSETzzSRvDaptBHPgJ-30" value="" style="endArrow=classic;html=1;rounded=0;exitX=0.5;exitY=1;exitDx=0;exitDy=0;entryX=0.5;entryY=0;entryDx=0;entryDy=0;" edge="1" parent="XwkSETzzSRvDaptBHPgJ-48" source="XwkSETzzSRvDaptBHPgJ-7" target="XwkSETzzSRvDaptBHPgJ-11">
          <mxGeometry width="50" height="50" relative="1" as="geometry">
            <mxPoint x="620" y="264" as="sourcePoint" />
            <mxPoint x="670" y="214" as="targetPoint" />
          </mxGeometry>
        </mxCell>
        <mxCell id="XwkSETzzSRvDaptBHPgJ-31" value="" style="endArrow=classic;html=1;rounded=0;entryX=0.5;entryY=0;entryDx=0;entryDy=0;" edge="1" parent="XwkSETzzSRvDaptBHPgJ-48" target="XwkSETzzSRvDaptBHPgJ-12">
          <mxGeometry width="50" height="50" relative="1" as="geometry">
            <mxPoint x="560" y="44" as="sourcePoint" />
            <mxPoint x="580" y="234" as="targetPoint" />
          </mxGeometry>
        </mxCell>
        <mxCell id="XwkSETzzSRvDaptBHPgJ-32" value="" style="endArrow=classic;html=1;rounded=0;" edge="1" parent="XwkSETzzSRvDaptBHPgJ-48" target="XwkSETzzSRvDaptBHPgJ-11">
          <mxGeometry width="50" height="50" relative="1" as="geometry">
            <mxPoint x="560" y="44" as="sourcePoint" />
            <mxPoint x="670" y="224" as="targetPoint" />
          </mxGeometry>
        </mxCell>
        <mxCell id="XwkSETzzSRvDaptBHPgJ-33" value="" style="endArrow=classic;html=1;rounded=0;exitX=0.5;exitY=1;exitDx=0;exitDy=0;entryX=0.5;entryY=0;entryDx=0;entryDy=0;" edge="1" parent="XwkSETzzSRvDaptBHPgJ-48" source="XwkSETzzSRvDaptBHPgJ-7" target="XwkSETzzSRvDaptBHPgJ-12">
          <mxGeometry width="50" height="50" relative="1" as="geometry">
            <mxPoint x="590" y="304" as="sourcePoint" />
            <mxPoint x="640" y="254" as="targetPoint" />
          </mxGeometry>
        </mxCell>
        <mxCell id="XwkSETzzSRvDaptBHPgJ-34" value="" style="endArrow=classic;html=1;rounded=0;exitX=0.5;exitY=1;exitDx=0;exitDy=0;" edge="1" parent="XwkSETzzSRvDaptBHPgJ-48" source="XwkSETzzSRvDaptBHPgJ-4">
          <mxGeometry width="50" height="50" relative="1" as="geometry">
            <mxPoint x="490" y="284" as="sourcePoint" />
            <mxPoint x="500" y="164" as="targetPoint" />
          </mxGeometry>
        </mxCell>
        <mxCell id="XwkSETzzSRvDaptBHPgJ-35" value="" style="endArrow=classic;html=1;rounded=0;" edge="1" parent="XwkSETzzSRvDaptBHPgJ-48">
          <mxGeometry width="50" height="50" relative="1" as="geometry">
            <mxPoint x="250" y="44" as="sourcePoint" />
            <mxPoint x="350" y="164" as="targetPoint" />
          </mxGeometry>
        </mxCell>
        <mxCell id="XwkSETzzSRvDaptBHPgJ-36" value="" style="endArrow=classic;html=1;rounded=0;exitX=0.5;exitY=1;exitDx=0;exitDy=0;entryX=0.5;entryY=0;entryDx=0;entryDy=0;" edge="1" parent="XwkSETzzSRvDaptBHPgJ-48" source="XwkSETzzSRvDaptBHPgJ-3" target="XwkSETzzSRvDaptBHPgJ-9">
          <mxGeometry width="50" height="50" relative="1" as="geometry">
            <mxPoint x="420" y="284" as="sourcePoint" />
            <mxPoint x="470" y="234" as="targetPoint" />
          </mxGeometry>
        </mxCell>
        <mxCell id="XwkSETzzSRvDaptBHPgJ-37" value="" style="endArrow=classic;html=1;rounded=0;entryX=0.5;entryY=0;entryDx=0;entryDy=0;" edge="1" parent="XwkSETzzSRvDaptBHPgJ-48" target="XwkSETzzSRvDaptBHPgJ-9">
          <mxGeometry width="50" height="50" relative="1" as="geometry">
            <mxPoint x="560" y="44" as="sourcePoint" />
            <mxPoint x="230" y="164" as="targetPoint" />
          </mxGeometry>
        </mxCell>
        <mxCell id="XwkSETzzSRvDaptBHPgJ-38" value="" style="endArrow=classic;html=1;rounded=0;exitX=0.5;exitY=1;exitDx=0;exitDy=0;" edge="1" parent="XwkSETzzSRvDaptBHPgJ-48" source="XwkSETzzSRvDaptBHPgJ-7">
          <mxGeometry width="50" height="50" relative="1" as="geometry">
            <mxPoint x="700" y="304" as="sourcePoint" />
            <mxPoint x="350" y="164" as="targetPoint" />
          </mxGeometry>
        </mxCell>
        <mxCell id="XwkSETzzSRvDaptBHPgJ-42" value="&lt;font face=&quot;Times New Roman&quot; style=&quot;font-size: 14px&quot;&gt;&lt;b&gt;M种算子&lt;/b&gt;&lt;/font&gt;" style="text;html=1;strokeColor=none;fillColor=none;align=center;verticalAlign=middle;whiteSpace=wrap;rounded=0;" vertex="1" parent="XwkSETzzSRvDaptBHPgJ-48">
          <mxGeometry x="315" width="60" height="30" as="geometry" />
        </mxCell>
        <mxCell id="XwkSETzzSRvDaptBHPgJ-43" value="&lt;font face=&quot;Times New Roman&quot; style=&quot;font-size: 14px&quot;&gt;&lt;b&gt;N种硬件配套&lt;/b&gt;&lt;/font&gt;" style="text;html=1;strokeColor=none;fillColor=none;align=center;verticalAlign=middle;whiteSpace=wrap;rounded=0;" vertex="1" parent="XwkSETzzSRvDaptBHPgJ-48">
          <mxGeometry x="305" y="184" width="90" height="20" as="geometry" />
        </mxCell>
        <mxCell id="XwkSETzzSRvDaptBHPgJ-45" value="&lt;b&gt;&lt;font color=&quot;#ff0000&quot;&gt;N*M种算子版本交付&lt;/font&gt;&lt;/b&gt;" style="text;html=1;strokeColor=none;fillColor=none;align=center;verticalAlign=middle;whiteSpace=wrap;rounded=0;fontFamily=Times New Roman;fontSize=14;fontColor=#0000FF;" vertex="1" parent="XwkSETzzSRvDaptBHPgJ-48">
          <mxGeometry y="84" width="140" height="30" as="geometry" />
        </mxCell>
        <mxCell id="XwkSETzzSRvDaptBHPgJ-50" value="" style="rounded=0;whiteSpace=wrap;html=1;fillColor=#fff2cc;strokeColor=#d6b656;gradientColor=#ffd966;" vertex="1" parent="1">
          <mxGeometry x="200" y="910" width="759" height="60" as="geometry" />
        </mxCell>
        <mxCell id="XwkSETzzSRvDaptBHPgJ-51" value="" style="rounded=0;whiteSpace=wrap;html=1;fillColor=#d5e8d4;strokeColor=#82b366;gradientColor=#97d077;" vertex="1" parent="1">
          <mxGeometry x="199" y="1120" width="760" height="60" as="geometry" />
        </mxCell>
        <mxCell id="XwkSETzzSRvDaptBHPgJ-52" value="人脸算子" style="whiteSpace=wrap;html=1;rounded=1;shadow=1;comic=0;labelBackgroundColor=none;strokeWidth=2;fontFamily=Verdana;fontSize=12;align=center;arcSize=50;fillColor=#f8cecc;gradientColor=#ea6b66;strokeColor=#b85450;" vertex="1" parent="1">
          <mxGeometry x="241" y="934" width="80" height="20" as="geometry" />
        </mxCell>
        <mxCell id="XwkSETzzSRvDaptBHPgJ-53" value="结构化算子" style="whiteSpace=wrap;html=1;rounded=1;shadow=1;comic=0;labelBackgroundColor=none;strokeWidth=2;fontFamily=Verdana;fontSize=12;align=center;arcSize=50;fillColor=#f8cecc;gradientColor=#ea6b66;strokeColor=#b85450;" vertex="1" parent="1">
          <mxGeometry x="410" y="934" width="80" height="20" as="geometry" />
        </mxCell>
        <mxCell id="XwkSETzzSRvDaptBHPgJ-54" value="车辆算子" style="whiteSpace=wrap;html=1;rounded=1;shadow=1;comic=0;labelBackgroundColor=none;strokeWidth=2;fontFamily=Verdana;fontSize=12;align=center;arcSize=50;fillColor=#f8cecc;gradientColor=#ea6b66;strokeColor=#b85450;" vertex="1" parent="1">
          <mxGeometry x="580" y="934" width="80" height="20" as="geometry" />
        </mxCell>
        <mxCell id="XwkSETzzSRvDaptBHPgJ-55" value="行为算子" style="whiteSpace=wrap;html=1;rounded=1;shadow=1;comic=0;labelBackgroundColor=none;strokeWidth=2;fontFamily=Verdana;fontSize=12;align=center;arcSize=50;fillColor=#f8cecc;gradientColor=#ea6b66;strokeColor=#b85450;" vertex="1" parent="1">
          <mxGeometry x="720" y="934" width="80" height="20" as="geometry" />
        </mxCell>
        <mxCell id="XwkSETzzSRvDaptBHPgJ-56" value="..." style="whiteSpace=wrap;html=1;rounded=1;shadow=1;comic=0;labelBackgroundColor=none;strokeWidth=2;fontFamily=Verdana;fontSize=12;align=center;arcSize=50;fillColor=#f8cecc;gradientColor=#ea6b66;strokeColor=#b85450;" vertex="1" parent="1">
          <mxGeometry x="860" y="934" width="80" height="20" as="geometry" />
        </mxCell>
        <mxCell id="XwkSETzzSRvDaptBHPgJ-57" value="P4&amp;amp;Cuda8.1" style="whiteSpace=wrap;html=1;rounded=1;shadow=1;comic=0;labelBackgroundColor=none;strokeWidth=2;fontFamily=Verdana;fontSize=12;align=center;arcSize=50;fillColor=#dae8fc;gradientColor=#7ea6e0;strokeColor=#6c8ebf;" vertex="1" parent="1">
          <mxGeometry x="239" y="1140" width="100" height="20" as="geometry" />
        </mxCell>
        <mxCell id="XwkSETzzSRvDaptBHPgJ-58" value="..." style="whiteSpace=wrap;html=1;rounded=1;shadow=1;comic=0;labelBackgroundColor=none;strokeWidth=2;fontFamily=Verdana;fontSize=12;align=center;arcSize=50;fillColor=#dae8fc;gradientColor=#7ea6e0;strokeColor=#6c8ebf;" vertex="1" parent="1">
          <mxGeometry x="369" y="1140" width="100" height="20" as="geometry" />
        </mxCell>
        <mxCell id="XwkSETzzSRvDaptBHPgJ-59" value="T4&amp;amp;Cuda11.1" style="whiteSpace=wrap;html=1;rounded=1;shadow=1;comic=0;labelBackgroundColor=none;strokeWidth=2;fontFamily=Verdana;fontSize=12;align=center;arcSize=50;fillColor=#dae8fc;gradientColor=#7ea6e0;strokeColor=#6c8ebf;" vertex="1" parent="1">
          <mxGeometry x="499" y="1140" width="100" height="20" as="geometry" />
        </mxCell>
        <mxCell id="XwkSETzzSRvDaptBHPgJ-60" value="Atlas310&amp;amp;SDK20.2" style="whiteSpace=wrap;html=1;rounded=1;shadow=1;comic=0;labelBackgroundColor=none;strokeWidth=2;fontFamily=Verdana;fontSize=12;align=center;arcSize=50;fillColor=#dae8fc;gradientColor=#7ea6e0;strokeColor=#6c8ebf;" vertex="1" parent="1">
          <mxGeometry x="629" y="1140" width="140" height="20" as="geometry" />
        </mxCell>
        <mxCell id="XwkSETzzSRvDaptBHPgJ-61" value="Atlas310&amp;amp;SDK21.2" style="whiteSpace=wrap;html=1;rounded=1;shadow=1;comic=0;labelBackgroundColor=none;strokeWidth=2;fontFamily=Verdana;fontSize=12;align=center;arcSize=50;fillColor=#dae8fc;gradientColor=#7ea6e0;strokeColor=#6c8ebf;" vertex="1" parent="1">
          <mxGeometry x="799" y="1140" width="140" height="20" as="geometry" />
        </mxCell>
        <mxCell id="XwkSETzzSRvDaptBHPgJ-80" value="&lt;font face=&quot;Times New Roman&quot; style=&quot;font-size: 14px&quot;&gt;&lt;b&gt;M种算子&lt;/b&gt;&lt;/font&gt;" style="text;html=1;strokeColor=none;fillColor=none;align=center;verticalAlign=middle;whiteSpace=wrap;rounded=0;" vertex="1" parent="1">
          <mxGeometry x="549" y="910" width="60" height="30" as="geometry" />
        </mxCell>
        <mxCell id="XwkSETzzSRvDaptBHPgJ-81" value="&lt;font face=&quot;Times New Roman&quot; style=&quot;font-size: 14px&quot;&gt;&lt;b&gt;N种硬件配套&lt;/b&gt;&lt;/font&gt;" style="text;html=1;strokeColor=none;fillColor=none;align=center;verticalAlign=middle;whiteSpace=wrap;rounded=0;" vertex="1" parent="1">
          <mxGeometry x="550" y="1120" width="90" height="20" as="geometry" />
        </mxCell>
        <mxCell id="XwkSETzzSRvDaptBHPgJ-82" value="&lt;b&gt;&lt;font color=&quot;#000000&quot;&gt;M种算子版本+X种异构SDK+N*M种算法模型交付&lt;/font&gt;&lt;/b&gt;" style="text;html=1;strokeColor=none;fillColor=none;align=center;verticalAlign=middle;whiteSpace=wrap;rounded=0;fontFamily=Times New Roman;fontSize=14;fontColor=#0000FF;" vertex="1" parent="1">
          <mxGeometry x="200" y="880" width="346" height="30" as="geometry" />
        </mxCell>
        <mxCell id="XwkSETzzSRvDaptBHPgJ-83" value="" style="rounded=0;whiteSpace=wrap;html=1;fillColor=#dae8fc;strokeColor=#6c8ebf;gradientColor=#7ea6e0;" vertex="1" parent="1">
          <mxGeometry x="199" y="1010" width="760" height="70" as="geometry" />
        </mxCell>
        <mxCell id="XwkSETzzSRvDaptBHPgJ-84" value="P4&amp;amp;Cuda8.1" style="whiteSpace=wrap;html=1;rounded=1;shadow=1;comic=0;labelBackgroundColor=none;strokeWidth=2;fontFamily=Verdana;fontSize=12;align=center;arcSize=50;fillColor=#d5e8d4;strokeColor=#82b366;" vertex="1" parent="1">
          <mxGeometry x="239" y="1050" width="100" height="20" as="geometry" />
        </mxCell>
        <mxCell id="XwkSETzzSRvDaptBHPgJ-85" value="..." style="whiteSpace=wrap;html=1;rounded=1;shadow=1;comic=0;labelBackgroundColor=none;strokeWidth=2;fontFamily=Verdana;fontSize=12;align=center;arcSize=50;fillColor=#d5e8d4;strokeColor=#82b366;" vertex="1" parent="1">
          <mxGeometry x="369" y="1050" width="100" height="20" as="geometry" />
        </mxCell>
        <mxCell id="XwkSETzzSRvDaptBHPgJ-86" value="T4&amp;amp;Cuda11.1" style="whiteSpace=wrap;html=1;rounded=1;shadow=1;comic=0;labelBackgroundColor=none;strokeWidth=2;fontFamily=Verdana;fontSize=12;align=center;arcSize=50;fillColor=#d5e8d4;strokeColor=#82b366;" vertex="1" parent="1">
          <mxGeometry x="499" y="1050" width="100" height="20" as="geometry" />
        </mxCell>
        <mxCell id="XwkSETzzSRvDaptBHPgJ-87" value="Atlas310&amp;amp;SDK20.2" style="whiteSpace=wrap;html=1;rounded=1;shadow=1;comic=0;labelBackgroundColor=none;strokeWidth=2;fontFamily=Verdana;fontSize=12;align=center;arcSize=50;fillColor=#d5e8d4;strokeColor=#82b366;" vertex="1" parent="1">
          <mxGeometry x="629" y="1050" width="140" height="20" as="geometry" />
        </mxCell>
        <mxCell id="XwkSETzzSRvDaptBHPgJ-88" value="Atlas310&amp;amp;SDK21.2" style="whiteSpace=wrap;html=1;rounded=1;shadow=1;comic=0;labelBackgroundColor=none;strokeWidth=2;fontFamily=Verdana;fontSize=12;align=center;arcSize=50;fillColor=#d5e8d4;strokeColor=#82b366;" vertex="1" parent="1">
          <mxGeometry x="799" y="1050" width="140" height="20" as="geometry" />
        </mxCell>
        <mxCell id="XwkSETzzSRvDaptBHPgJ-90" value="AI计算SDK" style="whiteSpace=wrap;html=1;rounded=1;shadow=1;comic=0;labelBackgroundColor=none;strokeWidth=2;fontFamily=Verdana;fontSize=12;align=center;arcSize=50;fillColor=#d5e8d4;strokeColor=#82b366;" vertex="1" parent="1">
          <mxGeometry x="241" y="1020" width="699" height="20" as="geometry" />
        </mxCell>
        <mxCell id="XwkSETzzSRvDaptBHPgJ-91" value="" style="endArrow=classic;html=1;rounded=0;fontFamily=Times New Roman;fontSize=14;fontColor=#FF0000;exitX=0.5;exitY=1;exitDx=0;exitDy=0;entryX=0.5;entryY=0;entryDx=0;entryDy=0;" edge="1" parent="1" source="XwkSETzzSRvDaptBHPgJ-52" target="XwkSETzzSRvDaptBHPgJ-90">
          <mxGeometry width="50" height="50" relative="1" as="geometry">
            <mxPoint x="20" y="1060" as="sourcePoint" />
            <mxPoint x="70" y="1010" as="targetPoint" />
          </mxGeometry>
        </mxCell>
        <mxCell id="XwkSETzzSRvDaptBHPgJ-93" value="" style="endArrow=classic;html=1;rounded=0;fontFamily=Times New Roman;fontSize=14;fontColor=#FF0000;exitX=0.5;exitY=1;exitDx=0;exitDy=0;entryX=0.5;entryY=0;entryDx=0;entryDy=0;" edge="1" parent="1" source="XwkSETzzSRvDaptBHPgJ-53" target="XwkSETzzSRvDaptBHPgJ-90">
          <mxGeometry width="50" height="50" relative="1" as="geometry">
            <mxPoint x="-20" y="1090" as="sourcePoint" />
            <mxPoint x="30" y="1040" as="targetPoint" />
          </mxGeometry>
        </mxCell>
        <mxCell id="XwkSETzzSRvDaptBHPgJ-94" value="" style="endArrow=classic;html=1;rounded=0;fontFamily=Times New Roman;fontSize=14;fontColor=#FF0000;exitX=0.5;exitY=1;exitDx=0;exitDy=0;" edge="1" parent="1" source="XwkSETzzSRvDaptBHPgJ-54">
          <mxGeometry width="50" height="50" relative="1" as="geometry">
            <mxPoint x="480" y="1260" as="sourcePoint" />
            <mxPoint x="590" y="1020" as="targetPoint" />
          </mxGeometry>
        </mxCell>
        <mxCell id="XwkSETzzSRvDaptBHPgJ-95" value="" style="endArrow=classic;html=1;rounded=0;fontFamily=Times New Roman;fontSize=14;fontColor=#FF0000;exitX=0.5;exitY=1;exitDx=0;exitDy=0;" edge="1" parent="1" source="XwkSETzzSRvDaptBHPgJ-55">
          <mxGeometry width="50" height="50" relative="1" as="geometry">
            <mxPoint x="690" y="1260" as="sourcePoint" />
            <mxPoint x="580" y="1020" as="targetPoint" />
          </mxGeometry>
        </mxCell>
        <mxCell id="XwkSETzzSRvDaptBHPgJ-96" value="" style="endArrow=classic;html=1;rounded=0;fontFamily=Times New Roman;fontSize=14;fontColor=#FF0000;exitX=0.5;exitY=1;exitDx=0;exitDy=0;entryX=0.5;entryY=0;entryDx=0;entryDy=0;" edge="1" parent="1" source="XwkSETzzSRvDaptBHPgJ-56" target="XwkSETzzSRvDaptBHPgJ-90">
          <mxGeometry width="50" height="50" relative="1" as="geometry">
            <mxPoint x="670" y="1270" as="sourcePoint" />
            <mxPoint x="720" y="1220" as="targetPoint" />
          </mxGeometry>
        </mxCell>
        <mxCell id="XwkSETzzSRvDaptBHPgJ-97" value="" style="endArrow=classic;html=1;rounded=0;fontFamily=Times New Roman;fontSize=14;fontColor=#FF0000;exitX=0.5;exitY=1;exitDx=0;exitDy=0;entryX=0.5;entryY=0;entryDx=0;entryDy=0;strokeColor=#FF8000;" edge="1" parent="1" source="XwkSETzzSRvDaptBHPgJ-84" target="XwkSETzzSRvDaptBHPgJ-57">
          <mxGeometry width="50" height="50" relative="1" as="geometry">
            <mxPoint x="240" y="1270" as="sourcePoint" />
            <mxPoint x="290" y="1150" as="targetPoint" />
          </mxGeometry>
        </mxCell>
        <mxCell id="XwkSETzzSRvDaptBHPgJ-98" value="" style="endArrow=classic;html=1;rounded=0;fontFamily=Times New Roman;fontSize=14;fontColor=#FF0000;exitX=0.5;exitY=1;exitDx=0;exitDy=0;strokeColor=#FF8000;" edge="1" parent="1" source="XwkSETzzSRvDaptBHPgJ-85" target="XwkSETzzSRvDaptBHPgJ-58">
          <mxGeometry width="50" height="50" relative="1" as="geometry">
            <mxPoint x="450" y="1270" as="sourcePoint" />
            <mxPoint x="500" y="1220" as="targetPoint" />
          </mxGeometry>
        </mxCell>
        <mxCell id="XwkSETzzSRvDaptBHPgJ-100" value="" style="endArrow=classic;html=1;rounded=0;fontFamily=Times New Roman;fontSize=14;fontColor=#FF0000;exitX=0.5;exitY=1;exitDx=0;exitDy=0;entryX=0;entryY=1;entryDx=0;entryDy=0;strokeColor=#FF8000;" edge="1" parent="1" source="XwkSETzzSRvDaptBHPgJ-86" target="XwkSETzzSRvDaptBHPgJ-81">
          <mxGeometry width="50" height="50" relative="1" as="geometry">
            <mxPoint x="470" y="1260" as="sourcePoint" />
            <mxPoint x="520" y="1210" as="targetPoint" />
          </mxGeometry>
        </mxCell>
        <mxCell id="XwkSETzzSRvDaptBHPgJ-101" value="" style="endArrow=classic;html=1;rounded=0;fontFamily=Times New Roman;fontSize=14;fontColor=#FF0000;exitX=0.5;exitY=1;exitDx=0;exitDy=0;entryX=0.5;entryY=0;entryDx=0;entryDy=0;strokeColor=#FF8000;" edge="1" parent="1" source="XwkSETzzSRvDaptBHPgJ-87" target="XwkSETzzSRvDaptBHPgJ-60">
          <mxGeometry width="50" height="50" relative="1" as="geometry">
            <mxPoint x="670" y="1260" as="sourcePoint" />
            <mxPoint x="720" y="1210" as="targetPoint" />
          </mxGeometry>
        </mxCell>
        <mxCell id="XwkSETzzSRvDaptBHPgJ-102" value="" style="endArrow=classic;html=1;rounded=0;fontFamily=Times New Roman;fontSize=14;fontColor=#FF0000;exitX=0.5;exitY=1;exitDx=0;exitDy=0;entryX=0.5;entryY=0;entryDx=0;entryDy=0;strokeColor=#FF8000;" edge="1" parent="1" source="XwkSETzzSRvDaptBHPgJ-88" target="XwkSETzzSRvDaptBHPgJ-61">
          <mxGeometry width="50" height="50" relative="1" as="geometry">
            <mxPoint x="850" y="1260" as="sourcePoint" />
            <mxPoint x="900" y="1210" as="targetPoint" />
          </mxGeometry>
        </mxCell>
        <mxCell id="XwkSETzzSRvDaptBHPgJ-103" value="" style="endArrow=classic;html=1;rounded=0;fontFamily=Times New Roman;fontSize=14;fontColor=#FF0000;exitX=0.5;exitY=1;exitDx=0;exitDy=0;entryX=0.5;entryY=0;entryDx=0;entryDy=0;" edge="1" parent="1">
          <mxGeometry width="50" height="50" relative="1" as="geometry">
            <mxPoint x="281" y="954" as="sourcePoint" />
            <mxPoint x="590.5" y="1020" as="targetPoint" />
          </mxGeometry>
        </mxCell>
        <mxCell id="XwkSETzzSRvDaptBHPgJ-104" value="" style="endArrow=classic;html=1;rounded=0;fontFamily=Times New Roman;fontSize=14;fontColor=#FF0000;exitX=0.5;exitY=1;exitDx=0;exitDy=0;entryX=0.5;entryY=0;entryDx=0;entryDy=0;" edge="1" parent="1">
          <mxGeometry width="50" height="50" relative="1" as="geometry">
            <mxPoint x="450" y="954" as="sourcePoint" />
            <mxPoint x="590.5" y="1020" as="targetPoint" />
          </mxGeometry>
        </mxCell>
        <mxCell id="XwkSETzzSRvDaptBHPgJ-105" value="" style="endArrow=classic;html=1;rounded=0;fontFamily=Times New Roman;fontSize=14;fontColor=#FF0000;exitX=0.5;exitY=1;exitDx=0;exitDy=0;" edge="1" parent="1">
          <mxGeometry width="50" height="50" relative="1" as="geometry">
            <mxPoint x="620" y="954" as="sourcePoint" />
            <mxPoint x="590" y="1020" as="targetPoint" />
          </mxGeometry>
        </mxCell>
        <mxCell id="XwkSETzzSRvDaptBHPgJ-106" value="" style="endArrow=classic;html=1;rounded=0;fontFamily=Times New Roman;fontSize=14;fontColor=#FF0000;exitX=0.5;exitY=1;exitDx=0;exitDy=0;" edge="1" parent="1">
          <mxGeometry width="50" height="50" relative="1" as="geometry">
            <mxPoint x="760" y="954" as="sourcePoint" />
            <mxPoint x="580" y="1020" as="targetPoint" />
          </mxGeometry>
        </mxCell>
      </root>
    </mxGraphModel>
  </diagram>
</mxfile>
